<?xml version="1.0" standalone="no"?>
<!DOCTYPE svg PUBLIC "-//W3C//DTD SVG 20010904//EN"
 "http://www.w3.org/TR/2001/REC-SVG-20010904/DTD/svg10.dtd">
<svg version="1.0" xmlns="http://www.w3.org/2000/svg"
 width="804.000000pt" height="903.000000pt" viewBox="0 0 804.000000 903.000000"
 preserveAspectRatio="xMidYMid meet">
<metadata>
Created by potrace 1.16, written by Peter Selinger 2001-2019
</metadata>
<g transform="translate(0.000000,903.000000) scale(0.100000,-0.100000)"
fill="#000000" stroke="none">
<path d="M705 9022 c-6 -5 -35 -16 -65 -26 -79 -24 -90 -33 -66 -51 11 -8 32
-15 47 -15 15 0 30 -4 33 -9 14 -22 136 -29 284 -16 94 9 107 -3 37 -32 -69
-28 -72 -25 147 -103 l116 -41 89 10 c48 5 91 7 95 5 16 -10 7 -22 -23 -33
-31 -11 -35 -28 -8 -42 8 -4 64 -31 124 -59 117 -55 136 -58 265 -44 60 7 60
0 1 -33 -18 -10 -34 -23 -34 -28 0 -6 16 -21 36 -34 52 -34 50 -56 -5 -47
-308 50 -617 44 -843 -16 -303 -81 -552 -252 -726 -498 -106 -150 -220 -386
-206 -425 6 -13 14 -11 59 15 29 17 88 49 131 72 71 37 82 47 134 124 111 166
167 208 124 93 -22 -57 -27 -89 -12 -89 4 0 69 29 142 64 74 35 159 75 191 89
48 22 64 36 111 104 90 128 124 147 93 51 -9 -28 -13 -55 -8 -60 5 -5 28 -2
51 7 52 18 51 18 51 3 -1 -7 -40 -40 -87 -73 -259 -180 -422 -437 -479 -755
-21 -111 -25 -393 -8 -424 15 -24 11 -28 143 138 44 56 61 86 66 118 13 88 47
228 56 234 16 10 20 -1 26 -66 8 -84 23 -87 86 -19 27 30 73 79 102 109 127
136 124 131 141 226 25 138 59 174 66 69 2 -38 7 -50 19 -50 9 0 52 32 95 71
43 39 107 95 142 124 38 32 64 62 68 78 3 15 10 41 14 57 5 17 11 46 14 66 4
21 13 42 21 49 14 12 19 -2 27 -80 5 -39 30 -35 114 20 96 63 214 120 251 123
l28 2 -4 -420 c-2 -231 -5 -423 -7 -427 -2 -3 -9 -262 -15 -575 -12 -667 -25
-1304 -39 -1998 -6 -275 -15 -716 -20 -980 -5 -264 -14 -660 -19 -880 -6 -220
-13 -566 -16 -770 -3 -203 -8 -403 -11 -443 -7 -85 6 -79 -174 -86 -249 -11
-605 -32 -930 -56 -397 -29 -474 -37 -500 -51 -8 -5 1683 -9 3759 -9 2076 0
3772 3 3768 6 -9 9 -130 23 -297 35 -394 27 -700 46 -960 58 -243 12 -298 19
-310 41 -5 9 -9 135 -10 280 0 144 -3 266 -5 271 -3 4 -10 265 -16 581 -22
1265 -28 1530 -33 1683 -4 88 -11 399 -16 690 -6 292 -15 739 -20 995 -6 256
-17 809 -26 1230 -8 421 -16 772 -16 780 -3 47 1 53 33 46 45 -9 172 -73 256
-129 90 -61 106 -59 113 10 3 28 9 55 12 59 10 9 27 -37 44 -115 17 -82 27
-96 126 -179 46 -38 105 -90 132 -116 28 -25 53 -46 56 -46 17 0 30 29 30 66
0 24 4 45 9 49 18 11 27 -17 67 -203 6 -28 270 -312 289 -312 8 0 16 17 20 43
16 109 25 122 44 65 14 -44 37 -152 45 -208 5 -37 22 -64 91 -150 116 -145
119 -144 123 45 6 248 -36 438 -137 630 -84 160 -200 289 -369 410 -100 71
-111 94 -28 60 57 -24 71 -2 41 68 -13 32 -12 47 6 47 4 0 38 -42 77 -93 82
-109 78 -105 162 -142 36 -15 116 -52 179 -81 62 -30 117 -54 122 -54 13 0 11
10 -11 75 -11 32 -20 64 -20 72 0 29 38 -8 101 -98 88 -126 101 -141 146 -164
21 -11 72 -39 113 -62 64 -37 110 -53 110 -39 0 14 -58 153 -96 229 -71 142
-150 253 -256 360 -133 132 -317 251 -463 297 -22 7 -49 16 -60 21 -11 4 -31
10 -45 13 -259 52 -322 59 -505 53 -88 -3 -198 -11 -245 -17 -159 -23 -186
-16 -117 29 40 26 47 46 20 55 -10 4 -29 15 -43 26 l-25 19 97 -6 98 -6 117
52 c175 77 175 77 116 105 -54 26 -26 35 81 25 84 -8 93 -7 175 22 47 17 113
40 146 51 33 11 64 24 69 29 6 5 -10 17 -37 29 -26 12 -47 26 -47 32 0 10 42
8 203 -8 32 -3 70 -2 85 4 15 5 47 15 72 22 25 6 59 18 75 25 l30 13 -58 26
c-32 14 -66 26 -77 26 -11 0 -20 5 -20 10 0 6 -134 10 -383 10 l-383 0 -65
-31 c-116 -55 -149 -73 -222 -127 -115 -85 -259 -238 -320 -340 -11 -18 -26
-32 -34 -30 -8 2 -27 39 -43 86 -53 155 -125 286 -219 400 l-35 42 -301 0
-300 0 30 -25 c55 -45 113 -67 193 -74 58 -4 77 -10 77 -21 0 -8 -15 -18 -37
-23 -21 -5 -38 -13 -38 -17 0 -5 19 -23 43 -41 23 -18 71 -59 107 -90 76 -66
85 -70 170 -78 69 -6 81 -20 31 -36 -16 -6 -33 -14 -36 -17 -4 -4 17 -37 47
-75 68 -86 108 -146 108 -161 0 -19 -24 -14 -110 23 -159 70 -304 115 -543
167 -71 15 -440 14 -507 -1 -179 -41 -339 -104 -463 -179 -37 -23 -73 -42 -80
-42 -7 0 -29 11 -50 25 -103 70 -333 165 -452 187 -156 28 -426 32 -547 8 -27
-6 -72 -15 -100 -20 -115 -23 -294 -81 -433 -141 -49 -22 -96 -39 -102 -39
-34 0 6 73 99 182 27 32 47 62 44 67 -3 5 -22 12 -42 15 -56 11 -35 30 39 37
73 6 98 20 206 115 35 30 75 62 88 71 32 21 29 30 -14 40 -57 13 -50 37 12 41
76 3 134 22 194 61 l54 36 -299 3 -299 3 -33 -38 c-86 -98 -177 -265 -226
-413 -14 -41 -31 -76 -38 -78 -7 -1 -40 35 -73 80 -73 101 -198 227 -288 292
-73 52 -228 136 -252 136 -8 0 -15 5 -15 10 0 12 -772 14 -785 2z m2132 -769
c26 -20 64 -49 83 -63 31 -24 50 -29 155 -39 66 -7 155 -19 198 -27 110 -21
118 -13 62 65 -23 31 -32 52 -25 56 12 8 9 10 115 -77 101 -81 113 -88 188
-98 93 -14 96 -23 37 -105 -63 -85 -54 -95 51 -60 41 13 80 25 87 25 46 1 123
35 169 75 28 25 56 45 62 45 5 0 34 -21 64 -47 44 -39 68 -51 123 -65 38 -9
100 -25 139 -36 102 -30 107 -21 40 67 -25 32 -45 64 -45 69 0 13 55 32 90 32
42 0 100 28 151 74 122 109 184 130 119 40 -33 -46 -34 -79 -3 -71 37 11 152
27 268 38 l120 12 80 64 c106 84 134 85 75 5 -36 -50 -37 -58 -9 -73 27 -14
19 -20 -66 -48 -479 -159 -790 -466 -889 -881 -36 -149 -46 -234 -45 -363 2
-170 14 -193 66 -125 15 20 56 71 90 113 50 62 63 85 68 123 15 115 39 215 57
236 11 13 28 -39 28 -84 0 -50 8 -70 26 -63 7 3 74 71 147 151 l133 147 23
107 c13 58 27 112 31 118 13 22 30 0 30 -38 0 -48 10 -82 23 -82 5 0 51 37
101 83 50 45 114 101 142 124 52 43 57 53 86 178 18 78 41 82 48 8 3 -28 9
-55 12 -59 4 -3 39 15 79 41 104 69 238 137 263 133 l21 -3 3 -3264 c1 -2501
-1 -3267 -10 -3278 -9 -12 -44 -14 -182 -12 -94 1 -189 6 -211 10 -22 4 -436
10 -920 13 -740 5 -1301 1 -1970 -17 l-80 -2 -3 3278 c-2 3116 -1 3277 15
3277 27 0 137 -54 246 -122 54 -33 100 -58 102 -56 3 2 8 28 12 58 5 29 13 55
19 57 11 4 38 -76 49 -145 6 -38 16 -50 103 -126 54 -46 119 -104 146 -130 28
-25 55 -46 62 -46 12 0 24 44 24 91 0 25 15 47 26 37 5 -6 40 -149 49 -200 5
-31 31 -65 147 -188 78 -82 145 -150 149 -150 3 0 12 35 18 77 6 42 13 79 16
81 8 9 23 -9 28 -35 3 -16 11 -48 17 -73 5 -25 15 -75 21 -112 6 -36 19 -77
28 -91 40 -61 166 -207 175 -204 39 13 33 280 -11 487 -72 341 -281 613 -613
797 -75 41 -268 123 -290 123 -11 0 -22 5 -25 10 -3 6 -15 10 -25 10 -29 0
-34 19 -10 38 l21 17 -30 40 c-55 72 -38 85 36 28z"/>
<path d="M2743 6303 c-12 -2 -36 -20 -53 -39 l-30 -35 0 -875 c0 -775 2 -878
16 -905 30 -59 34 -59 593 -59 320 0 520 4 536 10 15 6 35 20 46 33 18 21 18
58 19 914 l0 893 -29 32 -29 33 -524 1 c-288 1 -533 0 -545 -3z m921 -219 c3
-9 6 -341 6 -739 0 -599 -2 -724 -14 -734 -9 -8 -122 -10 -397 -9 l-384 3 -3
735 c-1 404 0 741 3 748 3 9 91 12 394 12 345 0 390 -2 395 -16z"/>
<path d="M4254 6303 c-12 -2 -32 -15 -45 -29 l-24 -26 -3 -886 c-2 -632 1
-895 9 -914 24 -58 27 -59 603 -56 514 3 525 3 553 24 15 11 31 32 34 45 4 13
7 412 8 887 1 954 4 914 -62 945 -31 15 -87 17 -544 16 -279 -1 -518 -4 -529
-6z m924 -215 c17 -17 17 -1459 0 -1476 -17 -17 -769 -17 -786 0 -17 17 -17
1459 0 1476 9 9 110 12 393 12 283 0 384 -3 393 -12z"/>
<path d="M5116 4210 c-83 -42 -126 -110 -126 -201 1 -157 142 -256 291 -204
89 32 139 106 139 208 0 56 -4 71 -32 113 -63 94 -180 129 -272 84z"/>
<path d="M2707 3569 c-48 -28 -47 -8 -47 -942 l0 -874 23 -34 23 -34 557 -3
558 -2 24 26 25 27 0 893 0 892 -26 31 -26 31 -546 0 c-353 -1 -553 -4 -565
-11z m957 -205 c3 -9 6 -343 6 -743 0 -552 -3 -730 -12 -739 -16 -16 -739 -17
-769 -2 -19 10 -19 29 -19 749 0 406 3 741 7 744 3 4 181 7 394 7 344 0 388
-2 393 -16z"/>
<path d="M4209 3551 l-29 -29 0 -887 c0 -655 3 -892 12 -908 25 -47 13 -46
590 -47 l547 0 28 24 28 24 3 869 c2 477 0 883 -3 902 -4 18 -18 44 -32 57
l-26 24 -544 0 -545 0 -29 -29z m969 -183 c9 -9 12 -188 12 -745 l0 -733 -26
-10 c-35 -14 -739 -13 -765 0 -19 10 -19 29 -19 743 0 557 3 736 12 745 17 17
769 17 786 0z"/>
<path d="M4435 1053 c-150 -32 -272 -140 -315 -281 -80 -258 82 -506 356 -545
209 -29 400 66 479 238 38 82 48 154 35 248 -23 159 -143 290 -305 332 -54 14
-201 19 -250 8z m221 -208 c113 -66 143 -240 61 -347 -86 -112 -233 -117 -329
-10 -44 49 -62 108 -55 178 18 171 182 262 323 179z"/>
<path d="M6205 1047 c-122 -31 -244 -136 -284 -242 -12 -31 -21 -62 -21 -70 0
-37 -19 -18 -34 33 -38 135 -150 236 -301 268 -39 9 -139 13 -282 14 l-223 0
0 -405 0 -405 238 0 c257 0 306 7 388 55 98 58 143 113 180 225 21 62 22 64
29 35 16 -61 63 -151 104 -197 52 -59 160 -114 251 -129 121 -20 275 7 378 67
l42 25 -2 172 -3 172 -94 3 c-69 2 -97 -1 -103 -10 -4 -7 -8 -59 -8 -114 0
-119 -3 -123 -88 -131 -71 -7 -121 8 -168 50 -125 109 -102 317 43 388 86 42
199 25 257 -40 31 -35 60 -26 126 38 55 52 61 61 51 79 -15 28 -92 81 -155
105 -64 25 -246 33 -321 14z m-702 -188 c49 -13 105 -63 128 -114 11 -24 19
-63 19 -100 0 -97 -45 -171 -128 -211 -47 -23 -205 -32 -227 -14 -12 10 -15
48 -15 225 0 116 3 215 7 218 10 11 174 8 216 -4z"/>
<path d="M3527 1043 c-4 -3 -7 -186 -7 -405 l0 -398 305 0 305 0 0 85 0 85
-184 0 c-131 0 -187 3 -192 12 -4 6 -7 138 -6 292 1 155 0 293 -4 309 l-6 27
-102 0 c-57 0 -106 -3 -109 -7z"/>
<path d="M6770 646 c0 -369 1 -405 17 -408 9 -2 153 -2 320 0 l303 3 0 84 0
85 -198 0 c-141 0 -201 3 -210 12 -16 16 -15 113 1 127 8 6 77 12 178 13 l164
3 0 80 0 80 -164 3 c-104 1 -170 7 -178 14 -10 8 -13 29 -11 67 l3 56 189 3
c123 1 194 6 203 14 10 8 13 32 11 87 l-3 76 -312 3 -313 2 0 -404z"/>
<path d="M2541 994 c-93 -19 -162 -58 -229 -128 -152 -158 -148 -431 7 -586
76 -76 159 -111 280 -120 155 -10 271 22 356 101 76 70 79 92 20 129 -43 27
-49 26 -87 -15 -17 -20 -61 -50 -97 -68 -56 -27 -76 -32 -141 -32 -65 0 -85 4
-143 33 -148 73 -214 240 -152 388 22 54 109 139 168 165 115 51 259 23 360
-70 24 -23 48 -41 53 -41 16 0 84 53 84 66 0 19 -56 81 -105 114 -93 64 -248
90 -374 64z"/>
<path d="M863 980 c-110 -40 -214 -137 -252 -237 -82 -213 9 -453 206 -546 61
-28 80 -32 177 -35 171 -7 267 24 355 110 65 65 65 87 -3 123 l-35 19 -48 -45
c-75 -70 -133 -94 -228 -94 -71 0 -89 4 -147 33 -112 55 -171 146 -171 267 -2
196 187 348 380 306 73 -17 95 -28 161 -85 30 -25 57 -46 60 -46 20 0 82 53
82 69 0 30 -112 127 -177 152 -82 32 -283 37 -360 9z"/>
<path d="M1477 983 c-4 -3 -7 -188 -7 -410 l0 -405 223 4 c216 3 224 4 279 30
72 34 133 97 171 177 51 108 49 282 -4 395 -48 104 -155 183 -273 205 -64 12
-378 15 -389 4z m380 -130 c63 -19 124 -68 161 -131 25 -43 27 -56 27 -147 0
-78 -4 -108 -19 -135 -26 -49 -74 -98 -119 -121 -44 -23 -169 -41 -252 -37
l-60 3 -3 285 c-1 157 0 291 3 299 7 18 186 8 262 -16z"/>
<path d="M3050 565 l0 -85 178 2 177 3 0 80 0 80 -177 3 -178 2 0 -85z"/>
</g>
</svg>
